<?xml version="1.0" encoding="UTF-8"?>
<!DOCTYPE svg PUBLIC "-//W3C//DTD SVG 1.1//EN" "http://www.w3.org/Graphics/SVG/1.1/DTD/svg11.dtd">
<!-- Creator: CorelDRAW -->
<svg xmlns="http://www.w3.org/2000/svg" xml:space="preserve" width="77.5759mm" height="108.135mm" version="1.1" style="shape-rendering:geometricPrecision; text-rendering:geometricPrecision; image-rendering:optimizeQuality; fill-rule:evenodd; clip-rule:evenodd"
viewBox="0 0 7743.35 10793.6"
 xmlns:xlink="http://www.w3.org/1999/xlink"
 xmlns:xodm="http://www.corel.com/coreldraw/odm/2003">
 <defs>
  <style type="text/css">
   <![CDATA[
    .fil1 {fill:#050504}
    .fil4 {fill:#8C8C8C}
    .fil2 {fill:#EA9DB9}
    .fil3 {fill:#EFD4B7}
    .fil0 {fill:#FDFDFD}
   ]]>
  </style>
 </defs>
 <g id="Layer_x0020_1">
  <metadata id="CorelCorpID_0Corel-Layer"/>
  <g id="_2647386155808">
   <path class="fil0" d="M3549.58 5145.14c288.43,-223.6 737.27,-213.46 710.89,239.06 -282.92,211.35 -770.68,249.56 -710.89,-239.06zm1775.09 -541.37c310.93,-237.76 421.85,384.06 204.36,497.05 -138.84,72.12 -267.96,-18.66 -306.62,-143.46 -57.61,-185.96 -3.46,-272.75 102.25,-353.59zm-3109.23 -19.03c350.32,-215.81 446.9,447.22 185.73,550.18 -315.82,124.49 -428.5,-400.62 -185.73,-550.18zm2564.01 -1153.68c-355.74,9.15 -622.32,261.44 -964.36,-92.72 -284.55,-294.64 -160.39,-650.98 -84.83,-1015.3 -173.32,-5.35 -424.13,-19.13 -562.12,57.52 -157.95,87.76 -119.99,172.15 -418.56,124.57 -248.52,-39.6 -578.27,-248.3 -821.32,-334.12 -361.65,-127.69 -625.24,-136.4 -758.34,251.09 -52.06,151.57 -69.89,339.57 -59.44,516.21 23.63,399.33 87.94,210.68 261.55,314.48 0.35,167.63 -239.61,499.72 -325.24,731.37 -94.05,254.46 -168.35,579.53 -128.1,884.99 89.58,15.21 196.65,12.36 276.55,29.31 172.04,36.5 137.13,31.36 128.33,161.7l-379.88 17.18c-0.26,177.48 57.52,307.37 104.4,434.82l307.47 27.54c-34.53,165.38 -83,73.45 -218.83,175.92 187.05,557.77 372.46,198.49 596.8,316.66 -24.96,97.47 -136.15,192.43 -136.51,191.59 -2.45,-5.61 -11.53,12.23 -15.54,19.51 1114.91,924.72 4266.76,769.67 4738.68,-140.74 -110.85,-193.7 -260.05,-220.03 173.04,-224.59 73.09,-124.71 139.23,-214.05 168.45,-396.97 -126.02,-40.22 -143.6,-24.58 -190.08,-152.29 316.17,-91.02 312.64,-13.68 298.83,-479.97 -173.74,0.11 -307.54,87.18 -426.51,-36.73 8.81,-139 256.9,-132.91 409.39,-175.55 15.23,-146.68 11.48,-213.04 -12.13,-358.88 -2.51,-15.48 -27.56,-133.73 -30.31,-141.28 -39.98,-109.47 -16.48,-56.88 -68.81,-111.31 -179.14,90.69 -587.64,501.61 -1038.71,56.58 -280.8,-277.04 -20.88,-240.72 -394.69,-342.02 -236.88,-64.2 -284.47,-172.17 -429.19,-308.58z"/>
   <path class="fil1" d="M4010.62 9663.45l1464.46 -21.26c-3.08,1240.7 -1385.56,981.45 -1588.11,696.88 -162.48,-228.29 33.92,-507.94 123.65,-675.62zm-285.91 837.12c-158.56,90.02 -1317.73,306.24 -1320.64,-864.41l1332.56 27.62c-20.51,180.6 -114.48,218.07 -126.91,415.48 -11.1,176.43 70.11,292.64 114.99,421.31zm-1956.89 -1125.87c-98.37,-338.06 765.07,-2068.31 891.39,-2404.87 457.17,22.61 337.46,96.72 562.71,305.13 334.46,309.44 927.11,331.39 1297.55,44.48 204.8,-158.62 162.37,-331.14 570.32,-297.74 185.95,426.49 969.34,1924.9 969.53,2360.78 -825.41,46.45 -3592.96,151.23 -4291.51,-7.78zm1544.9 -2306.19l1189 15.83c-243.17,323.61 -829.44,311.43 -1074.35,128.06 -135.38,-101.35 -67.41,-54.2 -114.65,-143.9zm2096.73 -73.56c293.67,103.49 617.93,453.86 1157.44,625.64 205.6,65.47 524.36,109.8 664.41,213.39 194.57,143.9 224.72,552.05 -484.56,629.65 -251.44,27.51 -456.75,346.1 -568.29,8.92 -76.33,-230.74 10.32,-152.1 -197.13,-265.67 -223.74,-122.48 -219.8,-288.01 -340.57,-538.03 -102.25,-211.66 -241.92,-418.39 -285.42,-627.89 -85.34,-57.44 -33.63,28.32 -67.06,-113.65 156.59,38.42 84.26,32.63 121.19,67.65zm-3962.56 1632.92c-264.82,-10.01 -147.9,-124.19 -428.35,-161.55 -175.84,-23.43 -353.25,-51.09 -468.66,-135.47 -214.01,-156.49 -258.74,-473.6 254.16,-613.51 1232.85,-336.31 1172.4,-653.73 1621.84,-780.06 -85.04,299.22 -273.95,644.66 -399.87,947.74 -151,363.44 -55.33,171 -319.62,348.17 -148.95,99.85 -83.29,226.78 -259.49,394.68zm4463.8 -5091.49c13.32,-132.4 52.69,-199.5 125.8,-269.45 44.67,67.26 60.74,126.01 52.34,233.98l-178.14 35.47zm-667.35 -850.55c601.32,-179.63 779.49,673.07 289.96,871.63 -551.03,223.5 -911.49,-685.96 -289.96,-871.63zm737.69 190.39c645.34,-272.43 1091.02,141.25 714.82,746.34 -420.84,676.85 -1079.81,497.74 -1072.5,89.33 224.14,-95.79 261,-29.14 529.42,-72.33 297.62,-541.24 -130.53,-369.02 -171.73,-763.34zm-1283.21 24.93c-62.21,-124.11 -65.65,-147.45 -10.66,-317.06l223.63 6.17c-5.55,116.03 -7.76,86.6 -73.2,191.69 -69.57,111.72 -16.52,79.06 -139.77,119.2zm40.65 246.09c-367.04,456.4 -1302.89,84.97 -726.56,-944.99 506.74,-905.58 1147.11,-229.16 1166.04,296.67 -244.46,-32.15 -519.91,-259.74 -671.39,96.15 -132.97,312.41 141.19,401.63 231.92,552.16zm40.99 283.82c144.72,136.41 192.31,244.38 429.19,308.58 373.81,101.3 113.89,64.98 394.69,342.02 451.07,445.03 859.57,34.12 1038.71,-56.58 52.33,54.43 28.84,1.84 68.81,111.31 2.75,7.55 27.81,125.8 30.31,141.28 23.61,145.84 27.36,212.2 12.13,358.88 -152.49,42.64 -400.57,36.54 -409.39,175.55 118.96,123.91 252.77,36.84 426.51,36.73 13.81,466.28 17.34,388.94 -298.83,479.97 46.48,127.71 64.06,112.07 190.08,152.29 -29.22,182.92 -95.36,272.26 -168.45,396.97 -433.09,4.56 -283.89,30.88 -173.04,224.59 -471.92,910.42 -3623.77,1065.46 -4738.68,140.74 4.01,-7.29 13.1,-25.12 15.54,-19.51 0.36,0.84 111.54,-94.12 136.51,-191.59 -224.34,-118.16 -409.76,241.12 -596.8,-316.66 135.83,-102.46 184.3,-10.54 218.83,-175.92l-307.47 -27.54c-46.87,-127.45 -104.66,-257.34 -104.4,-434.82l379.88 -17.18c8.79,-130.34 43.71,-125.2 -128.33,-161.7 -79.9,-16.95 -186.98,-14.09 -276.55,-29.31 -40.25,-305.46 34.06,-630.53 128.1,-884.99 85.63,-231.65 325.59,-563.74 325.24,-731.37 -173.61,-103.8 -237.92,84.84 -261.55,-314.48 -10.45,-176.65 7.38,-364.64 59.44,-516.21 133.1,-387.49 396.68,-378.77 758.34,-251.09 243.05,85.81 572.8,294.52 821.32,334.12 298.57,47.58 260.61,-36.81 418.56,-124.57 137.99,-76.66 388.79,-62.87 562.12,-57.52 -75.56,364.32 -199.71,720.66 84.83,1015.3 342.04,354.16 608.62,101.87 964.36,92.72zm552.5 -1304.13c174.99,-119.14 600.6,-254.49 851.09,-211.3 235.75,40.64 343.82,437 294.11,678.68 -165.05,6.99 -270.27,4.48 -415.38,34.76 -240.1,50.1 -160.56,56.68 -328.69,-50.08 -241.77,-153.52 -370.29,-69.35 -401.14,-452.06zm-2623.44 174.13c-40.26,-275.88 260.28,-329.13 331.78,-224.37 114.13,167.25 -93.05,339.71 -331.78,224.37zm524.62 -221.27c-232.97,-353.89 -623.86,-103.49 -427.17,-807.69 348.71,-1248.46 2192.21,-769.83 2027.25,308.28l-405.19 -24.52c-5.39,-10.22 -8.34,-23.93 -11.38,-32.74 -42.33,-123.14 -33.86,-145.27 -94.06,-207.66 -301.92,23.19 -74.88,312.01 -69.5,302.07 3.07,-5.67 13.15,17.16 18.14,26.68 -111.24,45.37 -214.54,186.44 -307.11,192.26 -197.2,12.4 7.25,-71.09 -52.8,-260.48l-216.99 23.2c-4.77,154.32 8.08,77.4 73.55,211.09 -124.18,76.39 -95.38,10.4 -215.9,70.37 91.8,114.55 218.72,57.85 381.94,38.63 -40.13,178.71 -81.85,161.63 -276.1,162.17 -141.13,0.4 -286.37,13.83 -424.67,-1.66zm-562.3 -1039.4c-587.56,-259.51 250.96,-1172.48 550.47,-567.08 -86.11,95.34 -185.82,163.23 -284.31,266.04 -220.91,230.62 -102.62,227.61 -266.16,301.04zm1579.46 -637.45c368.48,-629.07 1101.82,175.28 599.43,488.28 -115.98,-65.58 -179.23,-177.45 -292.52,-265.9 -103.94,-81.13 -211.27,-143.89 -306.91,-222.38zm-163.73 -60.92c-991.39,65.87 -613.65,34.46 -891.65,-148.83 -440.35,-290.31 -1048.23,204.88 -858.52,720.52 77.69,211.17 224.21,200.91 270.01,321.97 27.42,72.46 -28.63,320.03 21.79,516.43 59.12,230.3 1.22,238.73 -133.09,377.3 -560.79,-133.04 -1382.94,-801.29 -1617.27,486.28 -92.34,507.39 187.71,785.05 10.38,1137.98 -202.33,402.68 -184.36,633.54 -225.46,1112.11 -381.67,84.12 -628.29,-10.74 -662.79,216.55 138.24,98.67 482.27,-1.1 669.98,1.65l127.85 503.56c-184.28,62.77 -346.22,57.19 -396.19,221.47 231.01,65.64 562.1,-198.88 732.1,405.43 -174.61,66.65 -478.66,271.23 -528.57,415.06 275.4,139.75 484,-357.31 773.9,-224.24 70.49,32.36 227.23,169.91 338.59,230.18 121.4,65.71 299.54,108.36 379.11,206.05 -265.01,185.87 -521.48,376.65 -849.4,507.89 -351.59,140.72 -759.93,159.16 -964.57,409.53 -271.66,332.38 -2.88,736.31 306.57,850.28 187.16,68.93 359.79,64.8 525.34,141.91 316.17,147.24 227.39,115.9 548.19,21.26 -54.26,278.79 -199.55,418.61 -146.96,743.74 182.31,111.85 428,79.75 646.24,123.82 70.48,232.22 -26.58,1100.44 1069.5,1141.57 311.92,11.71 491.93,-74.78 704.07,-77.84 203.64,-2.94 385.38,98.84 668.26,89.31 1196.09,-40.35 1005.23,-1019 1121.58,-1137.96 147.11,-91.13 345.65,-12.83 563.41,-136.37 37.29,-277.04 -90.76,-431.62 -125.7,-692.83 391.49,34.14 245.97,11.68 528.07,-105.07 173.45,-71.79 358.22,-49.86 530.84,-136.11 273.08,-136.44 519.82,-544.72 218.03,-852.29 -250.14,-254.93 -573.35,-222.19 -930.5,-373.09 -188.58,-79.68 -741.39,-365.6 -829.53,-527.14 251.92,-78.98 557.28,-275.56 748.28,-450.71 93.63,-85.86 103.41,-133.42 213.54,-196.16 240.98,75.56 413.43,221.15 584.21,186.09 7.8,-1.6 20.53,-7.66 26.79,-9.35 6.29,-1.7 18.24,-5.98 26.33,-10.97 50.28,-147.81 -339.37,-306.78 -517.07,-368.59l196.04 -458.04c103.01,5.61 183.79,22.28 282.21,31.31 125.04,11.49 198.14,15.71 285.45,-51.15 -128.99,-189.2 -323.04,-109.85 -527.86,-211.1l11.97 -459.44 733.22 -40.68c-134.93,-272.71 -437.86,-113.72 -714.72,-202.87 -52.37,-121.94 -59.16,-373.97 -117.79,-551.5 -115.72,-350.39 -45.7,-219.16 60.82,-489.82 242.76,-616.94 -176.67,-718.07 -252.78,-969.52 -98,-323.73 -52.64,-831.7 -432.29,-902.93 -442.09,-82.93 -785.06,181.18 -1134.44,213.45 -83.38,-153.18 -138.38,-94.86 -147.44,-325.11 -8.77,-223.21 -37.52,-303.34 -57.91,-493.6 90.57,-109 233.74,-191.64 243.74,-422.88 29.73,-687.23 -880.95,-889.8 -1103.95,-306.52z"/>
   <path class="fil2" d="M2703.99 7569.64c427.75,-160 634.85,450.79 254.89,616.73 -410.2,179.15 -653.59,-467.6 -254.89,-616.73zm2153.72 7.52c436.36,-168.46 595.1,450.61 243.52,606.35 -380.32,168.47 -704.05,-428.57 -243.52,-606.35zm-3089.89 1797.55c698.55,159.01 3466.09,54.23 4291.51,7.78 -0.19,-435.88 -783.58,-1934.29 -969.53,-2360.78 -407.95,-33.4 -365.52,139.12 -570.32,297.74 -370.44,286.91 -963.09,264.96 -1297.55,-44.48 -225.26,-208.41 -105.55,-282.52 -562.71,-305.13 -126.32,336.56 -989.76,2066.81 -891.39,2404.87z"/>
   <path class="fil3" d="M3222.5 1372.34l101.9 -6.55c78.03,127.02 67.38,145.12 9.24,260.61 -195.94,11.4 -239.7,-119.42 -111.15,-254.06zm10.64 707.45c138.3,15.49 283.54,2.06 424.67,1.66 194.25,-0.54 235.98,16.54 276.1,-162.17 -163.22,19.22 -290.14,75.92 -381.94,-38.63 120.52,-59.97 91.72,6.02 215.9,-70.37 -65.48,-133.69 -78.33,-56.78 -73.55,-211.09l216.99 -23.2c60.05,189.39 -144.39,272.88 52.8,260.48 92.57,-5.82 195.87,-146.89 307.11,-192.26 -4.99,-9.52 -15.06,-32.35 -18.14,-26.68 -5.38,9.93 -232.42,-278.89 69.5,-302.07 60.2,62.39 51.72,84.51 94.06,207.66 3.03,8.81 5.99,22.52 11.38,32.74l405.19 24.52c164.96,-1078.12 -1678.54,-1556.75 -2027.25,-308.28 -196.69,704.2 194.2,453.81 427.17,807.69z"/>
   <path class="fil0" d="M1446.89 8627.87c176.21,-167.9 110.55,-294.84 259.49,-394.68 264.29,-177.17 168.62,15.27 319.62,-348.17 125.93,-303.07 314.83,-648.52 399.87,-947.74 -449.43,126.33 -388.98,443.74 -1621.84,780.06 -512.91,139.91 -468.17,457.02 -254.16,613.51 115.41,84.38 292.82,112.04 468.66,135.47 280.45,37.36 163.53,151.54 428.35,161.55z"/>
   <path class="fil0" d="M5355.32 7040.96c43.5,209.5 183.17,416.23 285.42,627.89 120.78,250.02 116.84,415.55 340.57,538.03 207.45,113.57 120.8,34.94 197.13,265.67 111.54,337.18 316.86,18.59 568.29,-8.92 709.28,-77.6 679.13,-485.76 484.56,-629.65 -140.05,-103.59 -458.81,-147.92 -664.41,-213.39 -539.51,-171.78 -863.77,-522.15 -1157.44,-625.64l-80.41 -11.62 26.28 57.62z"/>
   <path class="fil0" d="M4010.62 9663.45c-89.73,167.68 -286.13,447.33 -123.65,675.62 202.55,284.58 1585.02,543.82 1588.11,-696.88l-1464.46 21.26z"/>
   <path class="fil2" d="M4738.46 3147.24c-90.73,-150.53 -364.89,-239.76 -231.92,-552.16 151.48,-355.9 426.93,-128.3 671.39,-96.15 -18.93,-525.83 -659.3,-1202.26 -1166.04,-296.67 -576.33,1029.97 359.52,1401.39 726.56,944.99z"/>
   <path class="fil0" d="M3724.71 10500.57c-44.88,-128.67 -126.09,-244.89 -114.99,-421.31 12.43,-197.41 106.39,-234.88 126.91,-415.48l-1332.56 -27.62c2.91,1170.65 1162.08,954.43 1320.64,864.41z"/>
   <path class="fil2" d="M5981.03 2876.22c41.2,394.31 469.36,222.09 171.73,763.34 -268.42,43.19 -305.28,-23.47 -529.42,72.33 -7.32,408.42 651.66,587.53 1072.5,-89.33 376.21,-605.09 -69.47,-1018.77 -714.82,-746.34z"/>
   <path class="fil2" d="M5243.33 2685.83c-621.54,185.67 -261.07,1095.13 289.96,871.63 489.53,-198.55 311.37,-1051.26 -289.96,-871.63z"/>
   <path class="fil0" d="M5331.96 2126.93c30.85,382.71 159.38,298.54 401.14,452.06 168.12,106.75 88.59,100.18 328.69,50.08 145.1,-30.27 250.33,-27.77 415.38,-34.76 49.71,-241.69 -58.36,-638.05 -294.11,-678.68 -250.5,-43.19 -676.11,92.16 -851.09,211.3z"/>
   <path class="fil3" d="M2670.85 1040.39c163.54,-73.42 45.25,-70.42 266.16,-301.04 98.49,-102.81 198.2,-170.7 284.31,-266.04 -299.51,-605.41 -1138.03,307.56 -550.47,567.08z"/>
   <path class="fil3" d="M4250.31 402.94c95.63,78.5 202.97,141.25 306.91,222.38 113.29,88.45 176.55,200.32 292.52,265.9 502.4,-313 -230.95,-1117.35 -599.43,-488.28z"/>
   <path class="fil1" d="M2963.31 7715.31c50.31,110.76 61.48,165.2 9.98,309.55 -457.51,178.31 -488.53,-415.42 -9.98,-309.55zm-259.32 -145.67c-398.7,149.13 -155.3,795.88 254.89,616.73 379.96,-165.93 172.86,-776.72 -254.89,-616.73z"/>
   <path class="fil0" d="M3312.72 7068.52c47.24,89.7 -20.73,42.54 114.65,143.9 244.91,183.36 831.18,195.55 1074.35,-128.06l-1189 -15.83z"/>
   <path class="fil1" d="M2215.44 4584.74c-242.77,149.55 -130.09,674.67 185.73,550.18 261.17,-102.96 164.59,-765.99 -185.73,-550.18z"/>
   <path class="fil1" d="M4777.27 7932.19c-62.14,-284.32 336,-323.9 384.56,-95.77 58.4,274.3 -337.99,308.86 -384.56,95.77zm80.43 -355.04c-460.53,177.78 -136.8,774.82 243.52,606.35 351.57,-155.74 192.84,-774.81 -243.52,-606.35z"/>
   <path class="fil1" d="M3682.98 5258.25c107.24,-177.2 339.1,-185.34 437.62,0 -36.54,117.9 -82.9,164.97 -220.18,166.63 -148.82,1.8 -191.2,-43.83 -217.43,-166.63zm-133.39 -113.11c-59.79,488.62 427.97,450.41 710.89,239.06 26.38,-452.52 -422.46,-462.66 -710.89,-239.06z"/>
   <path class="fil1" d="M5324.68 4603.76c-105.72,80.84 -159.87,167.63 -102.25,353.59 38.66,124.8 167.77,215.57 306.62,143.46 217.49,-112.98 106.56,-734.81 -204.36,-497.05z"/>
   <path class="fil0" d="M4777.27 7932.19c46.57,213.09 442.97,178.52 384.56,-95.77 -48.56,-228.13 -446.7,-188.54 -384.56,95.77z"/>
   <path class="fil0" d="M2963.31 7715.31c-478.55,-105.87 -447.53,487.86 9.98,309.55 51.5,-144.35 40.33,-198.79 -9.98,-309.55z"/>
   <path class="fil3" d="M3682.98 5258.25c26.23,122.8 68.61,168.43 217.43,166.63 137.29,-1.67 183.64,-48.73 220.18,-166.63 -98.52,-185.34 -330.37,-177.2 -437.62,0z"/>
   <path class="fil3" d="M2708.52 2301.06c238.73,115.34 445.91,-57.11 331.78,-224.37 -71.5,-104.77 -372.04,-51.52 -331.78,224.37z"/>
   <path class="fil2" d="M4697.82 2901.15c123.25,-40.14 70.2,-7.48 139.77,-119.2 65.44,-105.09 67.65,-75.66 73.2,-191.69l-223.63 -6.17c-54.99,169.61 -51.55,192.95 10.66,317.06z"/>
   <path class="fil1" d="M3222.5 1372.34c-128.55,134.64 -84.79,265.46 111.15,254.06 58.13,-115.49 68.78,-133.59 -9.24,-260.61l-101.9 6.55z"/>
   <path class="fil2" d="M5910.69 3536.37l178.14 -35.47c8.39,-107.97 -7.68,-166.72 -52.34,-233.98 -73.11,69.95 -112.48,137.06 -125.8,269.45z"/>
   <path class="fil4" d="M5355.32 7040.96l-26.28 -57.62 80.41 11.62c-36.92,-35.02 35.4,-29.23 -121.19,-67.65 33.43,141.97 -18.29,56.21 67.06,113.65z"/>
  </g>
 </g>
</svg>
